# xmcd
#
# Track frame offsets: 
#        150
#        9338
#        27145
#        46120
#        63170
#        79220
#        94260
#        111835
#        131890
#        154950
#        185903
#
# Disc length: 4440 seconds
#
# Revision: 1
# Processed by: cddbd v1.5.2PL0 Copyright (c) Steve Scherf et al.
# Submitted via: ExactAudioCopy v1.0b3
#
DISCID=8d11560b
DTITLE=江美琪 - 朋友的朋友
DYEAR=2003
DGENRE=Pop
TTITLE0=相對的失去(鋼琴版)
TTITLE1=I'm O.K.謝謝
TTITLE2=你不公平
TTITLE3=黑色的翅膀
TTITLE4=朋友的朋友
TTITLE5=You're in love
TTITLE6=退一步傷心
TTITLE7=紫色蝴蝶
TTITLE8=相對的失去(吉他版)
TTITLE9=就這麼一輩子
TTITLE10=Data Track
EXTD=
EXTT0=
EXTT1=
EXTT2=
EXTT3=
EXTT4=
EXTT5=
EXTT6=
EXTT7=
EXTT8=
EXTT9=
EXTT10=
PLAYORDER=
